<?xml version="1.0" encoding="utf-8"?>
<!-- Generator: Adobe Illustrator 16.0.0, SVG Export Plug-In . SVG Version: 6.00 Build 0)  -->
<!DOCTYPE svg PUBLIC "-//W3C//DTD SVG 1.1//EN" "http://www.w3.org/Graphics/SVG/1.1/DTD/svg11.dtd">
<svg version="1.1" id="Capa_1" xmlns="http://www.w3.org/2000/svg" xmlns:xlink="http://www.w3.org/1999/xlink" x="0px" y="0px"
	 width="471px" height="471px" viewBox="0 0 471 471" enable-background="new 0 0 471 471" xml:space="preserve">
<g>
	<g>
		<path fill="#0C9CEE" d="M297.7,355.9c-2.7-3.9-5.1-9.1-5.7-19.7c14.9,3.2,51.2,9.6,36.3-9.3c-7.8-9.8-9-21.4-7.9-31.5
			c44.5-65.7,113.9-196.5,13.8-258.9C189.6-53.8,146.6,59,146.6,59c-113,123.8-35.8,205.5,12.5,239.8c1,8.4-0.3,18.4-7.9,28.1
			c-15.7,19.9,25.2,11.9,38.4,8.9c-0.4,7.8-1.7,12.7-3.5,16.4c-64.2,13-169.4,44.7-186,117.4h235.5H471
			C444.1,403,358,370.8,297.7,355.9z M188.3,278.9c-1.3-1.3-2.6-2.6-3.9-3.9c-6.5-6.6-12.8-13.2-18.3-19.3
			c-1.3-7.2,0.2-10.3,7.1-4.3c23.9,20.6,27.4,7.9,27.4,7.9c-13.3-22.6-24.8-98.1,17.7-124.6c42.5-26.5,47.8-57.9,47.8-57.9
			c59.7,29.8,55.6,119.8,43.5,185.2c-4,4.2-8.2,8.6-12.5,13c-1.3,1.3-2.6,2.6-3.9,3.9c-1.3,1.3-2.7,2.6-4,3.9
			c-19.7,19.3-40.1,36.6-48.5,36.6c-8.4,0-28.7-17.3-48.5-36.6C190.9,281.5,189.6,280.2,188.3,278.9z M240.7,431
			c-39.1,0-71-18-71-40.2c0-7.2,3.6-14.3,10.3-20.6l0.9-0.8c1.6-1.5,3.5-2.9,5.5-4.2l1.2-1.2c2.8-3.5,5.7-7.1,7.6-13.5
			c2.8-9.4,3.5-24.8-0.9-54.7c17.4,16.4,36.3,31.6,46.5,31.6c10.2,0,29.1-15.2,46.5-31.6c-4.9,33.4-3.5,48.7,0.2,57.8
			c1.9,4.7,4.3,7.8,6.8,10.8l0.9,0.8c2,1.4,3.9,2.8,5.6,4.3l0.8,0.8c6.7,6.3,10.3,13.4,10.3,20.6C311.7,412.9,279.9,431,240.7,431z"
			/>
	</g>
</g>
</svg>
